<?xml version="1.0" encoding="UTF-8" standalone="no"?>
<!-- Created with Inkscape (http://www.inkscape.org/) -->

<svg
   xmlns="http://www.w3.org/2000/svg"
   version="1.1"
   id="svg885"
   width="400"
   height="81.878998"
   viewBox="0 0 400 81.878998"
>
  <defs
     id="defs889" />
  <text
     xml:space="preserve"
     style="font-style:normal;font-weight:normal;font-size:40px;line-height:1.25;font-family:sans-serif;letter-spacing:0px;word-spacing:0px;fill:#000000;fill-opacity:1;stroke:none"
     x="202.45728"
     y="67.812042"
     id="text829"><tspan
       id="tspan827"
       x="202.45728"
       y="103.20267" /></text>
  <g
     id="g4560"
     transform="matrix(1.8857551,0,0,1.8857551,-163.56728,-95.402689)">
    <path
       id="text4588"
       d="m 105.84375,58.072266 c -3.76,0 -6.745651,0.94651 -8.958984,2.839843 -2.186667,1.866667 -3.347136,4.533334 -3.480469,8 -0.02667,0.746667 -0.04102,1.946276 -0.04102,3.59961 0,1.626666 0.01435,2.799531 0.04102,3.519531 0.133333,3.546667 1.279453,6.240078 3.439453,8.080078 2.186667,1.84 5.18667,2.759766 9,2.759766 2.37333,0 4.49466,-0.386823 6.36133,-1.160156 1.89333,-0.773334 3.38518,-1.892709 4.47851,-3.359376 1.09334,-1.466666 1.66737,-3.199218 1.72071,-5.199218 0,-0.24 -0.0926,-0.441563 -0.2793,-0.601563 -0.16,-0.16 -0.36156,-0.240234 -0.60156,-0.240234 h -5.67969 c -0.37333,0 -0.65318,0.08023 -0.83984,0.240234 -0.18667,0.133334 -0.33279,0.400782 -0.43946,0.800781 -0.34666,1.280001 -0.9207,2.18737 -1.7207,2.720704 -0.77333,0.533333 -1.77333,0.798828 -3,0.798828 -3.01333,0 -4.57302,-1.679063 -4.67969,-5.039063 -0.0267,-0.773333 -0.0391,-1.907057 -0.0391,-3.40039 0,-1.493334 0.0124,-2.600313 0.0391,-3.320313 0.10667,-3.36 1.66636,-5.039062 4.67969,-5.039062 1.25333,0 2.25333,0.265494 3,0.798828 0.77333,0.506666 1.34737,1.414036 1.7207,2.720703 0.13334,0.4 0.27946,0.679844 0.43946,0.839844 0.18666,0.133333 0.46651,0.199218 0.83984,0.199218 h 5.67969 c 0.24,0 0.44156,-0.08023 0.60156,-0.240234 0.18667,-0.16 0.2793,-0.359609 0.2793,-0.599609 -0.0533,-2 -0.62737,-3.732552 -1.72071,-5.199219 -1.09333,-1.466667 -2.58518,-2.586042 -4.47851,-3.359375 -1.86667,-0.773333 -3.988,-1.160156 -6.36133,-1.160156 z m 58.125,0 c -3.76,0 -6.74565,0.94651 -8.95898,2.839843 -2.18667,1.866667 -3.34714,4.533334 -3.48047,8 -0.0267,0.746667 -0.041,1.946276 -0.041,3.59961 0,1.626666 0.0144,2.799531 0.041,3.519531 0.13333,3.546667 1.27945,6.240078 3.43945,8.080078 2.18667,1.84 5.18667,2.759766 9,2.759766 2.37333,0 4.49466,-0.386823 6.36133,-1.160156 1.89333,-0.773334 3.38518,-1.892709 4.47851,-3.359376 1.09334,-1.466666 1.66737,-3.199218 1.72071,-5.199218 0,-0.24 -0.0926,-0.441563 -0.2793,-0.601563 -0.16,-0.16 -0.36156,-0.240234 -0.60156,-0.240234 h -5.67969 c -0.37333,0 -0.65318,0.08023 -0.83984,0.240234 -0.18667,0.133334 -0.33279,0.400782 -0.43946,0.800781 -0.34666,1.280001 -0.9207,2.18737 -1.7207,2.720704 -0.77333,0.533333 -1.77333,0.798828 -3,0.798828 -3.01333,0 -4.57302,-1.679063 -4.67969,-5.039063 -0.0267,-0.773333 -0.0391,-1.907057 -0.0391,-3.40039 0,-1.493334 0.0124,-2.600313 0.0391,-3.320313 0.10667,-3.36 1.66636,-5.039062 4.67969,-5.039062 1.25333,0 2.25333,0.265494 3,0.798828 0.77333,0.506666 1.34737,1.414036 1.7207,2.720703 0.13334,0.4 0.27946,0.679844 0.43946,0.839844 0.18666,0.133333 0.46651,0.199218 0.83984,0.199218 h 5.67969 c 0.24,0 0.44156,-0.08023 0.60156,-0.240234 0.18667,-0.16 0.2793,-0.359609 0.2793,-0.599609 -0.0533,-2 -0.62737,-3.732552 -1.72071,-5.199219 -1.09333,-1.466667 -2.58518,-2.586042 -4.47851,-3.359375 -1.86667,-0.773333 -3.988,-1.160156 -6.36133,-1.160156 z m 53.45313,0 c -0.29334,0 -0.54644,0.09263 -0.75977,0.279296 -0.18667,0.186667 -0.2793,0.42737 -0.2793,0.720704 v 26.398437 c 0,0.293333 0.0926,0.534037 0.2793,0.720703 0.21333,0.186667 0.46643,0.279297 0.75977,0.279297 h 5 c 0.29333,0 0.53403,-0.09263 0.7207,-0.279297 0.18666,-0.213333 0.27929,-0.454036 0.2793,-0.720703 V 59.072266 c -10e-6,-0.293334 -0.0926,-0.534037 -0.2793,-0.720704 -0.18667,-0.186666 -0.42737,-0.279296 -0.7207,-0.279296 z m 36.95312,0 c -0.29333,0 -0.54643,0.09263 -0.75977,0.279296 -0.18666,0.186667 -0.27929,0.42737 -0.27929,0.720704 v 26.398437 c 0,0.293333 0.0926,0.534037 0.27929,0.720703 0.21334,0.186667 0.46644,0.279297 0.75977,0.279297 h 5.40039 c 0.29333,0 0.53404,-0.09263 0.7207,-0.279297 0.21334,-0.186666 0.32032,-0.42737 0.32032,-0.720703 V 74.550781 c 0,-1.173333 0.30658,-2.07875 0.91992,-2.71875 0.61333,-0.666666 1.45286,-1 2.51953,-1 1.09333,0 1.93286,0.333334 2.51953,1 0.58667,0.64 0.88086,1.545417 0.88086,2.71875 v 10.919922 c 0,0.266667 0.0926,0.50737 0.2793,0.720703 0.21333,0.186667 0.45403,0.279297 0.7207,0.279297 h 5.43945 c 0.29334,0 0.53404,-0.09263 0.72071,-0.279297 0.21333,-0.186666 0.31836,-0.42737 0.31836,-0.720703 V 74.310547 c 0,-1.92 -0.34573,-3.559922 -1.03907,-4.919922 -0.69333,-1.36 -1.65419,-2.386745 -2.88086,-3.080078 -1.22666,-0.693333 -2.59914,-1.039063 -4.11914,-1.039063 -2.64,0 -4.73263,0.90737 -6.27929,2.720704 v -8.919922 c 0,-0.293334 -0.10698,-0.534037 -0.32032,-0.720704 -0.18666,-0.186666 -0.42737,-0.279296 -0.7207,-0.279296 z m -129.97852,0.398437 c -0.6052,0.897623 -1.27263,1.74288 -1.94921,2.513672 v 24.486328 c 0,0.293333 0.0926,0.534037 0.27929,0.720703 0.18667,0.186667 0.42737,0.279297 0.72071,0.279297 h 5.48046 c 0.29334,0 0.53209,-0.09263 0.71875,-0.279297 0.21334,-0.186666 0.32032,-0.42737 0.32032,-0.720703 v -9.798828 h 9.4414 v 9.798828 c 0,0.293333 0.0926,0.534037 0.2793,0.720703 0.21333,0.186667 0.46643,0.279297 0.75977,0.279297 h 5.43945 c 0.29333,0 0.53404,-0.09263 0.7207,-0.279297 0.21334,-0.186666 0.32031,-0.42737 0.32031,-0.720703 V 59.511719 c 0,-0.293334 -0.10697,-0.534037 -0.32031,-0.720703 -0.18666,-0.213334 -0.42737,-0.320313 -0.7207,-0.320313 h -5.43945 c -0.29334,0 -0.54644,0.106979 -0.75977,0.320313 -0.18667,0.186666 -0.2793,0.427369 -0.2793,0.720703 v 9.480469 h -9.4414 v -9.480469 c 0,-0.293334 -0.10698,-0.534037 -0.32032,-0.720703 -0.18666,-0.213334 -0.42541,-0.320313 -0.71875,-0.320313 z m 72.15821,0 c -0.8,0 -1.33295,0.386823 -1.59961,1.160156 l -9.32031,25.640625 c -0.0267,0.08 -0.041,0.199375 -0.041,0.359375 0,0.213334 0.0802,0.414896 0.24023,0.601563 0.18667,0.16 0.38628,0.238281 0.59961,0.238281 h 5.20118 c 0.64,0 1.0927,-0.292239 1.35937,-0.878906 l 1.43945,-3.880859 h 10.48047 l 1.43946,3.880859 c 0.26666,0.586667 0.72132,0.878906 1.36132,0.878906 h 5.19922 c 0.21334,0 0.40055,-0.07828 0.56055,-0.238281 0.18667,-0.186667 0.2793,-0.388229 0.2793,-0.601563 0,-0.16 -0.0124,-0.279375 -0.0391,-0.359375 l -9.32031,-25.640625 c -0.26667,-0.773333 -0.79961,-1.160156 -1.59961,-1.160156 z m 44.39062,6.800781 c -2.69333,0 -4.76117,0.946511 -6.20117,2.839844 v -1.439453 c 0,-0.293333 -0.0926,-0.534036 -0.2793,-0.720703 -0.18666,-0.186667 -0.42737,-0.279297 -0.7207,-0.279297 h -4.75976 c -0.29334,0 -0.54644,0.09263 -0.75977,0.279297 -0.18667,0.186667 -0.2793,0.42737 -0.2793,0.720703 v 26.400391 c 0,0.293333 0.0926,0.532083 0.2793,0.71875 0.21333,0.186666 0.46643,0.28125 0.75977,0.28125 h 5.16015 c 0.29333,0 0.53404,-0.09458 0.7207,-0.28125 0.18667,-0.186667 0.2793,-0.425417 0.2793,-0.71875 v -8.839844 c 1.28,1.76 3.21412,2.638672 5.80078,2.638672 2.56,0 4.58675,-0.827136 6.08008,-2.480469 1.49333,-1.653333 2.29372,-3.918828 2.40039,-6.798828 0.0267,-0.373333 0.0391,-0.879531 0.0391,-1.519531 0,-0.64 -0.0124,-1.133802 -0.0391,-1.480469 -0.10667,-2.986667 -0.90706,-5.28086 -2.40039,-6.880859 -1.46667,-1.626667 -3.49341,-2.439454 -6.08008,-2.439454 z m 48.16211,0 c -2.08,0 -3.8269,0.320938 -5.24023,0.960938 -1.41334,0.64 -2.46683,1.411693 -3.16016,2.318359 -0.69333,0.88 -1.05341,1.680391 -1.08008,2.400391 -0.0267,0.24 0.0412,0.453958 0.20117,0.640625 0.18667,0.16 0.41303,0.240234 0.67969,0.240234 h 4.63867 c 0.16,0 0.29373,-0.09458 0.4004,-0.28125 0.26666,-0.133333 0.57325,-0.345338 0.91992,-0.638672 0.45333,-0.373333 0.8545,-0.653177 1.20117,-0.839843 0.37333,-0.186667 0.82604,-0.28125 1.35937,-0.28125 0.96,0 1.63907,0.226354 2.03907,0.679687 0.4,0.453333 0.60156,1.17349 0.60156,2.160156 v 0.480469 l -4.96094,0.759766 c -2.64,0.426666 -4.72023,1.214661 -6.24023,2.361328 -1.49334,1.12 -2.24024,2.585104 -2.24024,4.398437 0,1.146667 0.32094,2.200157 0.96094,3.160157 0.66667,0.96 1.57404,1.72125 2.7207,2.28125 1.17334,0.533333 2.46558,0.798828 3.87891,0.798828 1.44,0 2.6807,-0.253099 3.7207,-0.759766 1.04,-0.533333 1.85279,-1.212396 2.43946,-2.039062 v 1.398437 c 0,0.266667 0.0926,0.50737 0.27929,0.720703 0.21334,0.186667 0.45404,0.279297 0.72071,0.279297 h 4.91992 c 0.29333,0 0.53403,-0.09263 0.7207,-0.279297 0.18667,-0.213333 0.2793,-0.454036 0.2793,-0.720703 V 73.351562 c 0,-2.48 -0.80039,-4.440859 -2.40039,-5.880859 -1.6,-1.466667 -4.05271,-2.199219 -7.35938,-2.199219 z m -89.43359,0.240235 3.56055,10.199219 h -7.1211 z m 38.95117,5.320312 c 1.2,0 2.05388,0.360078 2.56055,1.080078 0.53333,0.693334 0.83992,1.666589 0.91992,2.919922 0.0267,0.266667 0.0391,0.680235 0.0391,1.240235 0,0.56 -0.0124,0.971614 -0.0391,1.238281 -0.08,1.253333 -0.38659,2.240937 -0.91992,2.960937 -0.50667,0.693334 -1.36055,1.039063 -2.56055,1.039063 -1.12,0 -1.97388,-0.333333 -2.56055,-1 -0.56,-0.693333 -0.86659,-1.559609 -0.91992,-2.599609 -0.0267,-0.346667 -0.0391,-0.838516 -0.0391,-1.478516 0,-0.666667 0.0124,-1.174818 0.0391,-1.521484 0.0533,-1.120001 0.35992,-2.039766 0.91992,-2.759766 0.56,-0.746667 1.41388,-1.119141 2.56055,-1.119141 z m 53.12305,6.320313 v 0.478515 c 0,1.466667 -0.37443,2.587995 -1.1211,3.361329 -0.72,0.773333 -1.66651,1.160156 -2.83984,1.160156 -0.77333,0 -1.42565,-0.187214 -1.95899,-0.560547 -0.50666,-0.373333 -0.76171,-0.867136 -0.76171,-1.480469 0,-1.173333 1.12132,-1.973724 3.36132,-2.40039 z"
       style="font-style:normal;font-weight:normal;font-size:40px;line-height:1.25;font-family:sans-serif;letter-spacing:0px;word-spacing:0px;fill:#000000;fill-opacity:1;stroke:none" />
    <path
       id="rect831"
       d="m 92.323019,50.652452 c -2.489171,1.350225 -3.428158,2.246153 -2.664069,3.261124 0.636368,0.845314 3.811461,2.800108 10.43898,4.01014 -2.300009,0.8699 -4.525339,1.768923 -6.987978,5.728875 0,0 -4.657695,-3.938513 -6.132525,-7.71607 -0.525116,-1.345006 -0.627232,-4.081559 5.345592,-5.284069 z"
       style="fill:#000000;fill-opacity:1" />
    <path
       style="fill:#000000;fill-opacity:1"
       d="m 119.42377,50.652452 c 2.48917,1.350225 3.42816,2.246153 2.66407,3.261124 -0.63637,0.845314 -3.81146,2.800108 -10.43898,4.01014 2.30001,0.8699 4.52534,1.768923 6.98798,5.728875 0,0 4.65769,-3.938513 6.13252,-7.71607 0.52512,-1.345006 0.62724,-4.081559 -5.34559,-5.284069 z"
       id="path836"
    />
  </g>
</svg>
